<svg width="51" height="31" viewBox="0 0 51 31" fill="none" xmlns="http://www.w3.org/2000/svg">
<path d="M47.7024 12.0996H18.4748C17.6003 12.0996 16.7615 12.4401 16.1431 13.0462C15.5247 13.6522 15.1772 14.4742 15.1772 15.3314C15.1772 16.1885 15.5247 17.0105 16.1431 17.6165C16.7615 18.2226 17.6003 18.5631 18.4748 18.5631H47.7024C48.577 18.5631 49.4158 18.2226 50.0342 17.6165C50.6526 17.0105 51 16.1885 51 15.3314C51 14.4742 50.6526 13.6522 50.0342 13.0462C49.4158 12.4401 48.577 12.0996 47.7024 12.0996V12.0996Z" fill="url(#paint0_linear)"/>
<path d="M3.95395 19.375C6.13765 19.375 7.9079 17.6401 7.9079 15.5C7.9079 13.3599 6.13765 11.625 3.95395 11.625C1.77024 11.625 0 13.3599 0 15.5C0 17.6401 1.77024 19.375 3.95395 19.375Z" fill="url(#paint1_linear)"/>
<path d="M47.7024 0H18.4748C17.6003 0 16.7615 0.340477 16.1431 0.946548C15.5247 1.55262 15.1772 2.37464 15.1772 3.23175C15.1772 4.08886 15.5247 4.91085 16.1431 5.51692C16.7615 6.12299 17.6003 6.4635 18.4748 6.4635H47.7024C48.577 6.4635 49.4158 6.12299 50.0342 5.51692C50.6526 4.91085 51 4.08886 51 3.23175C51 2.37464 50.6526 1.55262 50.0342 0.946548C49.4158 0.340477 48.577 0 47.7024 0V0Z" fill="url(#paint2_linear)"/>
<path d="M3.95395 7.75C6.13765 7.75 7.9079 6.0151 7.9079 3.875C7.9079 1.7349 6.13765 0 3.95395 0C1.77024 0 0 1.7349 0 3.875C0 6.0151 1.77024 7.75 3.95395 7.75Z" fill="url(#paint3_linear)"/>
<path d="M47.7024 24.1993H18.4748C17.6003 24.1993 16.7615 24.5398 16.1431 25.1459C15.5247 25.752 15.1772 26.574 15.1772 27.4311C15.1772 28.2882 15.5247 29.1102 16.1431 29.7163C16.7615 30.3223 17.6003 30.6628 18.4748 30.6628H47.7024C48.577 30.6628 49.4158 30.3223 50.0342 29.7163C50.6526 29.1102 51 28.2882 51 27.4311C51 26.574 50.6526 25.752 50.0342 25.1459C49.4158 24.5398 48.577 24.1993 47.7024 24.1993V24.1993Z" fill="url(#paint4_linear)"/>
<path d="M3.95395 31C6.13765 31 7.9079 29.2651 7.9079 27.125C7.9079 24.9849 6.13765 23.25 3.95395 23.25C1.77024 23.25 0 24.9849 0 27.125C0 29.2651 1.77024 31 3.95395 31Z" fill="url(#paint5_linear)"/>
<defs>
<linearGradient id="paint0_linear" x1="33.0886" y1="12.0996" x2="33.0886" y2="18.5631" gradientUnits="userSpaceOnUse">
<stop stop-color="#ED8770"/>
<stop offset="1" stop-color="#D9519D"/>
</linearGradient>
<linearGradient id="paint1_linear" x1="3.95395" y1="11.625" x2="3.95395" y2="19.375" gradientUnits="userSpaceOnUse">
<stop stop-color="#ED8770"/>
<stop offset="1" stop-color="#D9519D"/>
</linearGradient>
<linearGradient id="paint2_linear" x1="33.0886" y1="0" x2="33.0886" y2="6.4635" gradientUnits="userSpaceOnUse">
<stop stop-color="#ED8770"/>
<stop offset="1" stop-color="#D9519D"/>
</linearGradient>
<linearGradient id="paint3_linear" x1="3.95395" y1="0" x2="3.95395" y2="7.75" gradientUnits="userSpaceOnUse">
<stop stop-color="#ED8770"/>
<stop offset="1" stop-color="#D9519D"/>
</linearGradient>
<linearGradient id="paint4_linear" x1="33.0886" y1="24.1993" x2="33.0886" y2="30.6628" gradientUnits="userSpaceOnUse">
<stop stop-color="#ED8770"/>
<stop offset="1" stop-color="#D9519D"/>
</linearGradient>
<linearGradient id="paint5_linear" x1="3.95395" y1="23.25" x2="3.95395" y2="31" gradientUnits="userSpaceOnUse">
<stop stop-color="#ED8770"/>
<stop offset="1" stop-color="#D9519D"/>
</linearGradient>
</defs>
</svg>
