<svg width="30" height="31" viewBox="0 0 30 31" fill="none" xmlns="http://www.w3.org/2000/svg">
<path d="M11.9999 0H1.49999C0.67157 0 0 0.660917 0 1.4762V11.8096C0 12.6249 0.67157 13.2858 1.49999 13.2858H11.9999C12.8284 13.2858 13.4999 12.6249 13.4999 11.8096V1.4762C13.4999 0.660917 12.8284 0 11.9999 0Z" fill="url(#paint0_linear)"/>
<path d="M11.9999 17.7142H1.49999C0.67157 17.7142 0 18.3752 0 19.1904V29.5238C0 30.3391 0.67157 31 1.49999 31H11.9999C12.8284 31 13.4999 30.3391 13.4999 29.5238V19.1904C13.4999 18.3752 12.8284 17.7142 11.9999 17.7142Z" fill="url(#paint1_linear)"/>
<path d="M28.5001 17.7142H18.0001C17.1717 17.7142 16.5001 18.3752 16.5001 19.1904V29.5238C16.5001 30.3391 17.1717 31 18.0001 31H28.5001C29.3285 31 30.0001 30.3391 30.0001 29.5238V19.1904C30.0001 18.3752 29.3285 17.7142 28.5001 17.7142Z" fill="url(#paint2_linear)"/>
<path d="M30.0001 6.6429C30.0001 2.97413 26.978 0 23.2501 0C19.5222 0 16.5001 2.97413 16.5001 6.6429C16.5001 10.3117 19.5222 13.2858 23.2501 13.2858C26.978 13.2858 30.0001 10.3117 30.0001 6.6429Z" fill="url(#paint3_linear)"/>
<defs>
<linearGradient id="paint0_linear" x1="6.74997" y1="0" x2="6.74997" y2="13.2858" gradientUnits="userSpaceOnUse">
<stop stop-color="#ED8770"/>
<stop offset="1" stop-color="#D9519D"/>
</linearGradient>
<linearGradient id="paint1_linear" x1="6.74997" y1="17.7142" x2="6.74997" y2="31" gradientUnits="userSpaceOnUse">
<stop stop-color="#ED8770"/>
<stop offset="1" stop-color="#D9519D"/>
</linearGradient>
<linearGradient id="paint2_linear" x1="23.2501" y1="17.7142" x2="23.2501" y2="31" gradientUnits="userSpaceOnUse">
<stop stop-color="#ED8770"/>
<stop offset="1" stop-color="#D9519D"/>
</linearGradient>
<linearGradient id="paint3_linear" x1="23.2501" y1="0" x2="23.2501" y2="13.2858" gradientUnits="userSpaceOnUse">
<stop stop-color="#ED8770"/>
<stop offset="1" stop-color="#D9519D"/>
</linearGradient>
</defs>
</svg>
