<svg width="50" height="50" viewBox="0 0 50 50" fill="none" xmlns="http://www.w3.org/2000/svg">
<g opacity="0.8">
<path d="M15 15L35 35" stroke="url(#paint0_linear)" stroke-width="6" stroke-linecap="round"/>
<path d="M35 15L15 35" stroke="url(#paint1_linear)" stroke-width="6" stroke-linecap="round"/>
</g>
<path d="M24.9405 49.9999C20.0077 49.9998 15.1857 48.5369 11.0843 45.7964C6.98286 43.0558 3.78619 39.1606 1.89851 34.6034C0.0108276 30.0461 -0.483092 25.0315 0.479208 20.1935C1.44151 15.3556 3.81681 10.9116 7.30476 7.42357C9.61508 5.08212 12.3657 3.2208 15.3984 1.94676C18.431 0.672732 21.6858 0.0111596 24.9751 0.000139972C28.2645 -0.0108797 31.5236 0.628871 34.5647 1.88256C37.6058 3.13624 40.3689 4.9791 42.6949 7.30501C45.0208 9.63093 46.8637 12.394 48.1174 15.435C49.3711 18.4761 50.0109 21.7351 49.9999 25.0244C49.9888 28.3138 49.3273 31.5684 48.0532 34.601C46.7792 37.6336 44.9178 40.3842 42.5763 42.6945C40.2657 45.0177 37.5173 46.8595 34.4901 48.1135C31.4629 49.3674 28.2171 50.0086 24.9405 49.9999ZM25.0017 2.68027C20.5621 2.68027 16.2222 3.99675 12.5308 6.46324C8.83934 8.92972 5.96223 12.4354 4.26326 16.537C2.56429 20.6387 2.11976 25.152 2.98589 29.5062C3.85202 33.8605 5.9899 37.8601 9.1292 40.9993C12.2685 44.1386 16.2682 46.2764 20.6225 47.1425C24.9768 48.0086 29.4902 47.5641 33.5919 45.8652C37.6936 44.1662 41.1994 41.2892 43.6659 37.5978C46.1324 33.9065 47.4489 29.5666 47.4489 25.1271C47.4447 19.1751 45.0784 13.4681 40.8697 9.25943C36.6609 5.05075 30.9538 2.68448 25.0017 2.68027V2.68027Z" fill="url(#paint2_linear)"/>
<defs>
<linearGradient id="paint0_linear" x1="25" y1="15" x2="25" y2="35" gradientUnits="userSpaceOnUse">
<stop stop-color="#ED8770"/>
<stop offset="1" stop-color="#D9519D"/>
</linearGradient>
<linearGradient id="paint1_linear" x1="25" y1="15" x2="25" y2="35" gradientUnits="userSpaceOnUse">
<stop stop-color="#ED8770"/>
<stop offset="1" stop-color="#D9519D"/>
</linearGradient>
<linearGradient id="paint2_linear" x1="25" y1="0" x2="25" y2="50" gradientUnits="userSpaceOnUse">
<stop stop-color="#ED8770"/>
<stop offset="1" stop-color="#D9519D"/>
</linearGradient>
</defs>
</svg>
