<svg width="154" height="24" viewBox="0 0 154 24" fill="none" xmlns="http://www.w3.org/2000/svg">
<path opacity="0.8" d="M3.88672 1.9375L9.46484 15.8594L15.043 1.9375H17.9609V19H15.7109V12.3555L15.9219 5.18359L10.3203 19H8.59766L3.00781 5.21875L3.23047 12.3555V19H0.980469V1.9375H3.88672ZM29.4219 17.7461C28.5781 18.7383 27.3398 19.2344 25.707 19.2344C24.3555 19.2344 23.3242 18.8438 22.6133 18.0625C21.9102 17.2734 21.5547 16.1094 21.5469 14.5703V6.32031H23.7148V14.5117C23.7148 16.4336 24.4961 17.3945 26.0586 17.3945C27.7148 17.3945 28.8164 16.7773 29.3633 15.543V6.32031H31.5312V19H29.4688L29.4219 17.7461ZM36.875 17.2305H44.293V19H34.2266V17.4062L41.2227 8.11328H34.332V6.32031H43.9414V7.85547L36.875 17.2305ZM49.0977 19H46.9297V6.32031H49.0977V19ZM46.7539 2.95703C46.7539 2.60547 46.8594 2.30859 47.0703 2.06641C47.2891 1.82422 47.6094 1.70312 48.0312 1.70312C48.4531 1.70312 48.7734 1.82422 48.9922 2.06641C49.2109 2.30859 49.3203 2.60547 49.3203 2.95703C49.3203 3.30859 49.2109 3.60156 48.9922 3.83594C48.7734 4.07031 48.4531 4.1875 48.0312 4.1875C47.6094 4.1875 47.2891 4.07031 47.0703 3.83594C46.8594 3.60156 46.7539 3.30859 46.7539 2.95703ZM57.6641 17.4648C58.4375 17.4648 59.1133 17.2305 59.6914 16.7617C60.2695 16.293 60.5898 15.707 60.6523 15.0039H62.7031C62.6641 15.7305 62.4141 16.4219 61.9531 17.0781C61.4922 17.7344 60.875 18.2578 60.1016 18.6484C59.3359 19.0391 58.5234 19.2344 57.6641 19.2344C55.9375 19.2344 54.5625 18.6602 53.5391 17.5117C52.5234 16.3555 52.0156 14.7773 52.0156 12.7773V12.4141C52.0156 11.1797 52.2422 10.082 52.6953 9.12109C53.1484 8.16016 53.7969 7.41406 54.6406 6.88281C55.4922 6.35156 56.4961 6.08594 57.6523 6.08594C59.0742 6.08594 60.2539 6.51172 61.1914 7.36328C62.1367 8.21484 62.6406 9.32031 62.7031 10.6797H60.6523C60.5898 9.85938 60.2773 9.1875 59.7148 8.66406C59.1602 8.13281 58.4727 7.86719 57.6523 7.86719C56.5508 7.86719 55.6953 8.26562 55.0859 9.0625C54.4844 9.85156 54.1836 10.9961 54.1836 12.4961V12.9062C54.1836 14.3672 54.4844 15.4922 55.0859 16.2812C55.6875 17.0703 56.5469 17.4648 57.6641 17.4648ZM77.2695 3.78906H71.7852V19H69.5469V3.78906H64.0742V1.9375H77.2695V3.78906ZM85.9531 19C85.8281 18.75 85.7266 18.3047 85.6484 17.6641C84.6406 18.7109 83.4375 19.2344 82.0391 19.2344C80.7891 19.2344 79.7617 18.8828 78.957 18.1797C78.1602 17.4688 77.7617 16.5703 77.7617 15.4844C77.7617 14.1641 78.2617 13.1406 79.2617 12.4141C80.2695 11.6797 81.6836 11.3125 83.5039 11.3125H85.6133V10.3164C85.6133 9.55859 85.3867 8.95703 84.9336 8.51172C84.4805 8.05859 83.8125 7.83203 82.9297 7.83203C82.1562 7.83203 81.5078 8.02734 80.9844 8.41797C80.4609 8.80859 80.1992 9.28125 80.1992 9.83594H78.0195C78.0195 9.20312 78.2422 8.59375 78.6875 8.00781C79.1406 7.41406 79.75 6.94531 80.5156 6.60156C81.2891 6.25781 82.1367 6.08594 83.0586 6.08594C84.5195 6.08594 85.6641 6.45312 86.4922 7.1875C87.3203 7.91406 87.75 8.91797 87.7812 10.1992V16.0352C87.7812 17.1992 87.9297 18.125 88.2266 18.8125V19H85.9531ZM82.3555 17.3477C83.0352 17.3477 83.6797 17.1719 84.2891 16.8203C84.8984 16.4688 85.3398 16.0117 85.6133 15.4492V12.8477H83.9141C81.2578 12.8477 79.9297 13.625 79.9297 15.1797C79.9297 15.8594 80.1562 16.3906 80.6094 16.7734C81.0625 17.1562 81.6445 17.3477 82.3555 17.3477ZM90.6641 12.5547C90.6641 10.5781 91.1211 9.00781 92.0352 7.84375C92.9492 6.67188 94.1602 6.08594 95.668 6.08594C97.2148 6.08594 98.4219 6.63281 99.2891 7.72656L99.3945 6.32031H101.375V18.6953C101.375 20.3359 100.887 21.6289 99.9102 22.5742C98.9414 23.5195 97.6367 23.9922 95.9961 23.9922C95.082 23.9922 94.1875 23.7969 93.3125 23.4062C92.4375 23.0156 91.7695 22.4805 91.3086 21.8008L92.4336 20.5C93.3633 21.6484 94.5 22.2227 95.8438 22.2227C96.8984 22.2227 97.7188 21.9258 98.3047 21.332C98.8984 20.7383 99.1953 19.9023 99.1953 18.8242V17.7344C98.3281 18.7344 97.1445 19.2344 95.6445 19.2344C94.1602 19.2344 92.957 18.6367 92.0352 17.4414C91.1211 16.2461 90.6641 14.6172 90.6641 12.5547ZM92.8438 12.8008C92.8438 14.2305 93.1367 15.3555 93.7227 16.1758C94.3086 16.9883 95.1289 17.3945 96.1836 17.3945C97.5508 17.3945 98.5547 16.7734 99.1953 15.5312V9.74219C98.5312 8.53125 97.5352 7.92578 96.207 7.92578C95.1523 7.92578 94.3281 8.33594 93.7344 9.15625C93.1406 9.97656 92.8438 11.1914 92.8438 12.8008ZM110.656 17.8633C110.656 17.4883 110.766 17.1758 110.984 16.9258C111.211 16.6758 111.547 16.5508 111.992 16.5508C112.438 16.5508 112.773 16.6758 113 16.9258C113.234 17.1758 113.352 17.4883 113.352 17.8633C113.352 18.2227 113.234 18.5234 113 18.7656C112.773 19.0078 112.438 19.1289 111.992 19.1289C111.547 19.1289 111.211 19.0078 110.984 18.7656C110.766 18.5234 110.656 18.2227 110.656 17.8633ZM124.859 2.83984C123.891 2.68359 123.109 2.60547 122.516 2.60547C120.953 2.60547 120.172 3.42578 120.172 5.06641V6.32031H122.879V7.99609H120.172V19H118.004V7.99609H116V6.32031H118.004V4.9375C118.012 3.58594 118.391 2.55078 119.141 1.83203C119.891 1.11328 120.957 0.753906 122.34 0.753906C123.129 0.753906 124.691 0.992187 127.027 1.46875V19H124.859V2.83984ZM138.406 19C138.281 18.75 138.18 18.3047 138.102 17.6641C137.094 18.7109 135.891 19.2344 134.492 19.2344C133.242 19.2344 132.215 18.8828 131.41 18.1797C130.613 17.4688 130.215 16.5703 130.215 15.4844C130.215 14.1641 130.715 13.1406 131.715 12.4141C132.723 11.6797 134.137 11.3125 135.957 11.3125H138.066V10.3164C138.066 9.55859 137.84 8.95703 137.387 8.51172C136.934 8.05859 136.266 7.83203 135.383 7.83203C134.609 7.83203 133.961 8.02734 133.438 8.41797C132.914 8.80859 132.652 9.28125 132.652 9.83594H130.473C130.473 9.20312 130.695 8.59375 131.141 8.00781C131.594 7.41406 132.203 6.94531 132.969 6.60156C133.742 6.25781 134.59 6.08594 135.512 6.08594C136.973 6.08594 138.117 6.45312 138.945 7.1875C139.773 7.91406 140.203 8.91797 140.234 10.1992V16.0352C140.234 17.1992 140.383 18.125 140.68 18.8125V19H138.406ZM134.809 17.3477C135.488 17.3477 136.133 17.1719 136.742 16.8203C137.352 16.4688 137.793 16.0117 138.066 15.4492V12.8477H136.367C133.711 12.8477 132.383 13.625 132.383 15.1797C132.383 15.8594 132.609 16.3906 133.062 16.7734C133.516 17.1562 134.098 17.3477 134.809 17.3477ZM148.719 17.4648C149.492 17.4648 150.168 17.2305 150.746 16.7617C151.324 16.293 151.645 15.707 151.707 15.0039H153.758C153.719 15.7305 153.469 16.4219 153.008 17.0781C152.547 17.7344 151.93 18.2578 151.156 18.6484C150.391 19.0391 149.578 19.2344 148.719 19.2344C146.992 19.2344 145.617 18.6602 144.594 17.5117C143.578 16.3555 143.07 14.7773 143.07 12.7773V12.4141C143.07 11.1797 143.297 10.082 143.75 9.12109C144.203 8.16016 144.852 7.41406 145.695 6.88281C146.547 6.35156 147.551 6.08594 148.707 6.08594C150.129 6.08594 151.309 6.51172 152.246 7.36328C153.191 8.21484 153.695 9.32031 153.758 10.6797H151.707C151.645 9.85938 151.332 9.1875 150.77 8.66406C150.215 8.13281 149.527 7.86719 148.707 7.86719C147.605 7.86719 146.75 8.26562 146.141 9.0625C145.539 9.85156 145.238 10.9961 145.238 12.4961V12.9062C145.238 14.3672 145.539 15.4922 146.141 16.2812C146.742 17.0703 147.602 17.4648 148.719 17.4648Z" fill="white"/>
</svg>
