<svg width="62" height="55" viewBox="0 0 62 55" fill="none" xmlns="http://www.w3.org/2000/svg">
<path d="M50.232 12.481H27.96L23.53 6.43004C23.4629 6.33192 23.3725 6.25197 23.2669 6.19734C23.1613 6.14272 23.0439 6.11513 22.925 6.11704H4.957C2.213 6.14004 0 8.69803 0 11.855V49.071C0 52.234 2.234 54.798 4.987 54.798H50.232C52.985 54.798 55.216 52.231 55.219 49.067V18.212C55.215 15.048 52.984 12.485 50.232 12.481Z" fill="url(#paint0_linear)"/>
<path d="M56.396 6.36911H34.104L29.671 0.313109C29.6038 0.214847 29.5133 0.13481 29.4075 0.0801796C29.3017 0.0255493 29.1841 -0.00196453 29.065 0.000109104H11.091C9.8053 0.0817739 8.59379 0.630701 7.68465 1.54352C6.77552 2.45634 6.23149 3.67006 6.15503 4.95611H22.549C22.9884 4.96307 23.4198 5.07465 23.8074 5.2816C24.195 5.48855 24.5278 5.78491 24.778 6.14611L28.562 11.3211H49.849C53.786 11.3291 56.976 14.9951 56.983 19.5211V48.6691C58.2696 48.3972 59.417 47.6749 60.2185 46.6324C61.0199 45.5898 61.423 44.2954 61.355 42.9821V12.0981C61.349 8.94811 59.136 6.39211 56.396 6.36911Z" fill="url(#paint1_linear)"/>
<defs>
<linearGradient id="paint0_linear" x1="27.6095" y1="6.11694" x2="27.6095" y2="54.798" gradientUnits="userSpaceOnUse">
<stop stop-color="#ED8770"/>
<stop offset="1" stop-color="#D9519D"/>
</linearGradient>
<linearGradient id="paint1_linear" x1="33.7587" y1="0" x2="33.7587" y2="48.6691" gradientUnits="userSpaceOnUse">
<stop stop-color="#ED8770"/>
<stop offset="1" stop-color="#D9519D"/>
</linearGradient>
</defs>
</svg>
