<svg width="78" height="84" viewBox="0 0 78 84" fill="none" xmlns="http://www.w3.org/2000/svg">
<path d="M31.1942 82.1963L8.12355 69.1266C8.14279 69.0795 8.16479 69.0298 8.18471 68.9821C10.814 62.7113 11.5404 55.8714 12.9465 49.2398C13.198 50.1939 13.4433 51.1491 13.6825 52.1054C14.9428 57.1245 16.0293 62.206 17.6237 67.1364C18.9816 71.3398 21.7951 78.3927 27.7753 76.5087C30.9083 75.5217 32.3109 72.8012 33.4421 70.0242C34.6005 66.8956 35.4685 63.6713 36.0356 60.3906C37.3414 54.0075 38.1777 47.5392 39.5707 41.1683C40.165 38.3633 40.9027 35.5891 41.7808 32.8562C41.8 32.7958 41.8227 32.7373 41.842 32.6768C41.9925 33.2244 42.1361 33.7747 42.268 34.325C42.7278 36.2372 43.0755 38.1756 43.3724 40.1194C43.404 40.3271 43.4336 40.534 43.4645 40.7409C43.5332 41.2785 43.5985 41.8093 43.661 42.3441C43.793 43.4863 43.9036 44.6326 44.0046 45.7802C44.4223 50.7781 44.5459 55.7953 44.375 60.8071C44.294 63.273 44.1295 65.7341 43.8816 68.1906C43.8212 68.7899 43.7524 69.3886 43.681 69.9859C43.6521 70.2338 43.6191 70.4798 43.5882 70.725C43.5875 70.7292 43.5875 70.7335 43.5882 70.7378C43.4246 71.876 43.2301 73.0108 43.013 74.1396C42.6151 76.2401 42.0908 78.3158 41.4427 80.356C41.1678 81.2106 40.8565 82.0525 40.5184 82.883C40.4414 83.0496 40.3644 83.2156 40.284 83.3815C40.1933 83.5703 40.0964 83.7544 39.9995 83.9412C39.6161 83.964 39.2312 83.9755 38.845 83.9755C36.1812 84.0309 33.5472 83.4184 31.1942 82.1963V82.1963ZM54.359 61.1209C54.7308 51.3569 54.1184 41.2677 51.8671 31.7241C51.1558 28.7066 50.1972 25.247 48.2517 22.7482L78 54.2031L48.251 22.7489C45.2959 18.948 41.086 18.0073 37.1304 21.094C34.0867 23.4651 32.7583 28.198 31.7055 31.6509C30.32 36.4382 29.2358 41.304 28.4591 46.2209L18.838 36.2157C17.1887 33.4885 14.5381 31.9156 11.247 32.5411C8.1799 33.127 6.7017 36.2238 5.63032 38.7273C4.37477 41.6581 3.77208 44.8563 3.12334 47.9544C2.26501 52.0456 1.6953 56.171 0.689902 60.2259C0.183166 58.7407 -0.0477116 57.1788 0.00818017 55.614V28.37C0.00818017 23.6156 3.20581 17.7722 7.41503 15.3869L31.1736 1.78842C35.3835 -0.59614 42.2509 -0.59614 46.4601 1.78842L70.4255 15.3869C74.6347 17.7722 77.9993 23.615 77.9993 28.37V55.614C77.9993 60.3704 74.6319 66.2125 70.4255 68.5984L52.2829 78.9221C53.6834 73.0726 54.1391 66.918 54.359 61.1209ZM23.3221 49.5078C22.2157 45.0935 21.2171 40.1739 18.8222 36.2177L28.4542 46.2209C28.134 48.074 27.8268 49.9285 27.5128 51.7782C27.0461 54.533 26.5506 57.2877 25.9321 60.0197C24.9913 56.5332 24.1983 53.0037 23.3221 49.5078Z" fill="url(#paint0_linear)"/>
<path opacity="0.25" d="M44.0025 45.7781C43.9042 44.6305 43.7963 43.4856 43.6588 42.342C43.5963 41.8045 43.5324 41.273 43.4623 40.7389C43.4321 40.5319 43.4018 40.325 43.3702 40.1173C43.0733 38.1735 42.7256 36.2351 42.2658 34.3229C42.1339 33.772 41.991 33.2223 41.8398 32.6741C41.8205 32.7345 41.7972 32.793 41.7779 32.8541C40.8997 35.5877 40.1621 38.3625 39.5678 41.1682C38.1748 47.5384 37.3412 54.0014 36.0328 60.3905C35.4659 63.6713 34.5979 66.8956 33.4392 70.0241C32.3094 72.8011 30.9054 75.5209 27.7724 76.5086C21.7936 78.3899 18.976 71.3397 17.6208 67.1363C16.0271 62.2066 14.9406 57.1251 13.6796 52.106C13.44 51.1501 13.1944 50.1949 12.9429 49.2404C11.5368 55.872 10.8125 62.7119 8.18115 68.9827C8.16122 69.0297 8.13992 69.0801 8.12 69.1265L31.1906 82.1969C33.8963 83.5831 36.9487 84.1902 39.9932 83.9478C40.0901 83.7617 40.1877 83.577 40.2777 83.3881C40.3581 83.2215 40.4351 83.0562 40.5121 82.8896C40.8502 82.0591 41.1629 81.2166 41.4364 80.3626C42.0843 78.3225 42.6087 76.2467 43.0067 74.1462C43.2238 73.0168 43.419 71.8826 43.5819 70.7444C43.5812 70.74 43.5812 70.7354 43.5819 70.731C43.6135 70.483 43.6458 70.2365 43.6753 69.9919C43.744 69.3946 43.8128 68.7959 43.876 68.1966C44.1225 65.7424 44.287 63.2812 44.3694 60.8131C44.5419 55.7987 44.4193 50.7787 44.0025 45.7781V45.7781Z" fill="black"/>
<path opacity="0.25" d="M54.359 61.1182C54.1384 66.9153 53.6834 73.0692 52.2822 78.9187L70.4248 68.595C74.634 66.2091 77.9986 60.367 77.9986 55.6106V54.1997L48.251 22.7441C50.1965 25.2429 51.1552 28.7025 51.8657 31.72C54.1184 41.2677 54.7307 51.3569 54.359 61.1182Z" fill="black"/>
<path opacity="0.25" d="M23.322 49.5079C24.1982 53.0018 24.9913 56.5333 25.9335 60.0198C26.552 57.2898 27.0467 54.5297 27.5141 51.7783C27.8281 49.9285 28.1326 48.0741 28.4555 46.2217L18.8235 36.2185C21.2171 40.174 22.2156 45.0936 23.322 49.5079Z" fill="black"/>
<defs>
<linearGradient id="paint0_linear" x1="39" y1="0" x2="39" y2="83.9789" gradientUnits="userSpaceOnUse">
<stop stop-color="#ED8770"/>
<stop offset="1" stop-color="#D9519D"/>
</linearGradient>
</defs>
</svg>
