<svg width="162" height="23" viewBox="0 0 162 23" fill="none" xmlns="http://www.w3.org/2000/svg">
<path opacity="0.8" d="M3.88672 0.9375L9.46484 14.8594L15.043 0.9375H17.9609V18H15.7109V11.3555L15.9219 4.18359L10.3203 18H8.59766L3.00781 4.21875L3.23047 11.3555V18H0.980469V0.9375H3.88672ZM29.4219 16.7461C28.5781 17.7383 27.3398 18.2344 25.707 18.2344C24.3555 18.2344 23.3242 17.8438 22.6133 17.0625C21.9102 16.2734 21.5547 15.1094 21.5469 13.5703V5.32031H23.7148V13.5117C23.7148 15.4336 24.4961 16.3945 26.0586 16.3945C27.7148 16.3945 28.8164 15.7773 29.3633 14.543V5.32031H31.5312V18H29.4688L29.4219 16.7461ZM36.875 16.2305H44.293V18H34.2266V16.4062L41.2227 7.11328H34.332V5.32031H43.9414V6.85547L36.875 16.2305ZM49.0977 18H46.9297V5.32031H49.0977V18ZM46.7539 1.95703C46.7539 1.60547 46.8594 1.30859 47.0703 1.06641C47.2891 0.824219 47.6094 0.703125 48.0312 0.703125C48.4531 0.703125 48.7734 0.824219 48.9922 1.06641C49.2109 1.30859 49.3203 1.60547 49.3203 1.95703C49.3203 2.30859 49.2109 2.60156 48.9922 2.83594C48.7734 3.07031 48.4531 3.1875 48.0312 3.1875C47.6094 3.1875 47.2891 3.07031 47.0703 2.83594C46.8594 2.60156 46.7539 2.30859 46.7539 1.95703ZM57.6641 16.4648C58.4375 16.4648 59.1133 16.2305 59.6914 15.7617C60.2695 15.293 60.5898 14.707 60.6523 14.0039H62.7031C62.6641 14.7305 62.4141 15.4219 61.9531 16.0781C61.4922 16.7344 60.875 17.2578 60.1016 17.6484C59.3359 18.0391 58.5234 18.2344 57.6641 18.2344C55.9375 18.2344 54.5625 17.6602 53.5391 16.5117C52.5234 15.3555 52.0156 13.7773 52.0156 11.7773V11.4141C52.0156 10.1797 52.2422 9.08203 52.6953 8.12109C53.1484 7.16016 53.7969 6.41406 54.6406 5.88281C55.4922 5.35156 56.4961 5.08594 57.6523 5.08594C59.0742 5.08594 60.2539 5.51172 61.1914 6.36328C62.1367 7.21484 62.6406 8.32031 62.7031 9.67969H60.6523C60.5898 8.85938 60.2773 8.1875 59.7148 7.66406C59.1602 7.13281 58.4727 6.86719 57.6523 6.86719C56.5508 6.86719 55.6953 7.26562 55.0859 8.0625C54.4844 8.85156 54.1836 9.99609 54.1836 11.4961V11.9062C54.1836 13.3672 54.4844 14.4922 55.0859 15.2812C55.6875 16.0703 56.5469 16.4648 57.6641 16.4648ZM77.2695 2.78906H71.7852V18H69.5469V2.78906H64.0742V0.9375H77.2695V2.78906ZM85.9531 18C85.8281 17.75 85.7266 17.3047 85.6484 16.6641C84.6406 17.7109 83.4375 18.2344 82.0391 18.2344C80.7891 18.2344 79.7617 17.8828 78.957 17.1797C78.1602 16.4688 77.7617 15.5703 77.7617 14.4844C77.7617 13.1641 78.2617 12.1406 79.2617 11.4141C80.2695 10.6797 81.6836 10.3125 83.5039 10.3125H85.6133V9.31641C85.6133 8.55859 85.3867 7.95703 84.9336 7.51172C84.4805 7.05859 83.8125 6.83203 82.9297 6.83203C82.1562 6.83203 81.5078 7.02734 80.9844 7.41797C80.4609 7.80859 80.1992 8.28125 80.1992 8.83594H78.0195C78.0195 8.20312 78.2422 7.59375 78.6875 7.00781C79.1406 6.41406 79.75 5.94531 80.5156 5.60156C81.2891 5.25781 82.1367 5.08594 83.0586 5.08594C84.5195 5.08594 85.6641 5.45312 86.4922 6.1875C87.3203 6.91406 87.75 7.91797 87.7812 9.19922V15.0352C87.7812 16.1992 87.9297 17.125 88.2266 17.8125V18H85.9531ZM82.3555 16.3477C83.0352 16.3477 83.6797 16.1719 84.2891 15.8203C84.8984 15.4688 85.3398 15.0117 85.6133 14.4492V11.8477H83.9141C81.2578 11.8477 79.9297 12.625 79.9297 14.1797C79.9297 14.8594 80.1562 15.3906 80.6094 15.7734C81.0625 16.1562 81.6445 16.3477 82.3555 16.3477ZM90.6641 11.5547C90.6641 9.57812 91.1211 8.00781 92.0352 6.84375C92.9492 5.67188 94.1602 5.08594 95.668 5.08594C97.2148 5.08594 98.4219 5.63281 99.2891 6.72656L99.3945 5.32031H101.375V17.6953C101.375 19.3359 100.887 20.6289 99.9102 21.5742C98.9414 22.5195 97.6367 22.9922 95.9961 22.9922C95.082 22.9922 94.1875 22.7969 93.3125 22.4062C92.4375 22.0156 91.7695 21.4805 91.3086 20.8008L92.4336 19.5C93.3633 20.6484 94.5 21.2227 95.8438 21.2227C96.8984 21.2227 97.7188 20.9258 98.3047 20.332C98.8984 19.7383 99.1953 18.9023 99.1953 17.8242V16.7344C98.3281 17.7344 97.1445 18.2344 95.6445 18.2344C94.1602 18.2344 92.957 17.6367 92.0352 16.4414C91.1211 15.2461 90.6641 13.6172 90.6641 11.5547ZM92.8438 11.8008C92.8438 13.2305 93.1367 14.3555 93.7227 15.1758C94.3086 15.9883 95.1289 16.3945 96.1836 16.3945C97.5508 16.3945 98.5547 15.7734 99.1953 14.5312V8.74219C98.5312 7.53125 97.5352 6.92578 96.207 6.92578C95.1523 6.92578 94.3281 7.33594 93.7344 8.15625C93.1406 8.97656 92.8438 10.1914 92.8438 11.8008ZM110.656 16.8633C110.656 16.4883 110.766 16.1758 110.984 15.9258C111.211 15.6758 111.547 15.5508 111.992 15.5508C112.438 15.5508 112.773 15.6758 113 15.9258C113.234 16.1758 113.352 16.4883 113.352 16.8633C113.352 17.2227 113.234 17.5234 113 17.7656C112.773 18.0078 112.438 18.1289 111.992 18.1289C111.547 18.1289 111.211 18.0078 110.984 17.7656C110.766 17.5234 110.656 17.2227 110.656 16.8633ZM118.977 5.32031L119.035 6.72656C119.965 5.63281 121.219 5.08594 122.797 5.08594C124.57 5.08594 125.777 5.76562 126.418 7.125C126.84 6.51562 127.387 6.02344 128.059 5.64844C128.738 5.27344 129.539 5.08594 130.461 5.08594C133.242 5.08594 134.656 6.55859 134.703 9.50391V18H132.535V9.63281C132.535 8.72656 132.328 8.05078 131.914 7.60547C131.5 7.15234 130.805 6.92578 129.828 6.92578C129.023 6.92578 128.355 7.16797 127.824 7.65234C127.293 8.12891 126.984 8.77344 126.898 9.58594V18H124.719V9.69141C124.719 7.84766 123.816 6.92578 122.012 6.92578C120.59 6.92578 119.617 7.53125 119.094 8.74219V18H116.926V5.32031H118.977ZM148.695 11.8008C148.695 13.7305 148.254 15.2852 147.371 16.4648C146.488 17.6445 145.293 18.2344 143.785 18.2344C142.246 18.2344 141.035 17.7461 140.152 16.7695V22.875H137.984V5.32031H139.965L140.07 6.72656C140.953 5.63281 142.18 5.08594 143.75 5.08594C145.273 5.08594 146.477 5.66016 147.359 6.80859C148.25 7.95703 148.695 9.55469 148.695 11.6016V11.8008ZM146.527 11.5547C146.527 10.125 146.223 8.99609 145.613 8.16797C145.004 7.33984 144.168 6.92578 143.105 6.92578C141.793 6.92578 140.809 7.50781 140.152 8.67188V14.7305C140.801 15.8867 141.793 16.4648 143.129 16.4648C144.168 16.4648 144.992 16.0547 145.602 15.2344C146.219 14.4062 146.527 13.1797 146.527 11.5547ZM154.391 8.41406H156.02C157.043 8.39844 157.848 8.12891 158.434 7.60547C159.02 7.08203 159.312 6.375 159.312 5.48438C159.312 3.48437 158.316 2.48438 156.324 2.48438C155.387 2.48438 154.637 2.75391 154.074 3.29297C153.52 3.82422 153.242 4.53125 153.242 5.41406H151.074C151.074 4.0625 151.566 2.94141 152.551 2.05078C153.543 1.15234 154.801 0.703125 156.324 0.703125C157.934 0.703125 159.195 1.12891 160.109 1.98047C161.023 2.83203 161.48 4.01562 161.48 5.53125C161.48 6.27344 161.238 6.99219 160.754 7.6875C160.277 8.38281 159.625 8.90234 158.797 9.24609C159.734 9.54297 160.457 10.0352 160.965 10.7227C161.48 11.4102 161.738 12.25 161.738 13.2422C161.738 14.7734 161.238 15.9883 160.238 16.8867C159.238 17.7852 157.938 18.2344 156.336 18.2344C154.734 18.2344 153.43 17.8008 152.422 16.9336C151.422 16.0664 150.922 14.9219 150.922 13.5H153.102C153.102 14.3984 153.395 15.1172 153.98 15.6562C154.566 16.1953 155.352 16.4648 156.336 16.4648C157.383 16.4648 158.184 16.1914 158.738 15.6445C159.293 15.0977 159.57 14.3125 159.57 13.2891C159.57 12.2969 159.266 11.5352 158.656 11.0039C158.047 10.4727 157.168 10.1992 156.02 10.1836H154.391V8.41406Z" fill="white"/>
</svg>
