<svg width="44" height="31" viewBox="0 0 44 31" fill="none" xmlns="http://www.w3.org/2000/svg">
<path d="M26.2491 24.8023H22.8411C21.6528 24.8035 20.5089 24.0558 19.6425 22.7117L14.9654 15.4965L19.6453 8.28371C20.5116 6.93914 21.6556 6.19142 22.8439 6.19303H26.2505V9.29187L30.0001 4.64593L26.2505 0V3.09884H22.8425C21.1798 3.09445 19.5786 4.13783 18.365 6.01649L7.54361 22.7093C6.67763 24.0518 5.53504 24.7993 4.34779 24.8H0.000976562V27.8942H4.35061C6.01227 27.8967 7.61219 26.8535 8.82531 24.9765L13.5881 17.6243L18.358 24.9835C19.5718 26.8616 21.1728 27.9049 22.8355 27.9012H26.2435V31L29.993 26.3541L26.2435 21.7081V24.807L26.2491 24.8023Z" fill="url(#paint0_linear)"/>
<path d="M4.35666 6.20931C5.54312 6.2096 6.68493 6.9572 7.54966 8.29997L10.8509 13.3943L12.2253 11.2757L8.82996 6.0374C7.61844 4.1566 6.01873 3.1099 4.35666 3.11047H0V6.20467H4.35666V6.20931Z" fill="url(#paint1_linear)"/>
<path d="M43.0645 13H40.6787L37.1514 6.80664V13H34.752V3.04688H37.1514L40.6719 9.24023V3.04688H43.0645V13Z" fill="#D9519D"/>
<defs>
<linearGradient id="paint0_linear" x1="15.0005" y1="0" x2="15.0005" y2="31" gradientUnits="userSpaceOnUse">
<stop stop-color="#ED8770"/>
<stop offset="1" stop-color="#D9519D"/>
</linearGradient>
<linearGradient id="paint1_linear" x1="6.11267" y1="3.11047" x2="6.11267" y2="13.3943" gradientUnits="userSpaceOnUse">
<stop stop-color="#ED8770"/>
<stop offset="1" stop-color="#D9519D"/>
</linearGradient>
</defs>
</svg>
