<svg width="50" height="50" viewBox="0 0 50 50" fill="none" xmlns="http://www.w3.org/2000/svg">
<path d="M42.9823 0.190785L21.3549 6.80749C18.7346 7.55501 16.6108 10.2881 16.6108 12.9083V35.4059C16.6108 35.4059 16.6108 35.7135 16.6108 35.7212C16.6108 35.7212 15.0438 34.6642 11.5534 35.1587C6.42785 35.8867 2.27173 39.8209 2.27173 43.9478C2.27173 48.0748 6.42785 50.6035 11.5534 49.8754C16.6829 49.1513 20.4419 45.3378 20.4419 41.2089C20.4419 41.2089 20.4419 23.5605 20.4419 21.7306C20.4419 19.9007 22.6416 19.1162 22.6416 19.1162L41.7636 13.1225C41.7636 13.1225 43.8797 12.4119 43.8797 14.3703C43.8797 16.3286 43.8797 30.0039 43.8797 30.0039C43.8797 30.0039 43.8797 30.0078 43.8797 30.0156C43.8797 30.0156 41.9311 28.8943 38.4407 29.3187C33.3151 29.9397 29.159 33.7921 29.159 37.9171C29.159 42.046 33.3151 44.6584 38.4407 44.0354C43.5701 43.4145 47.7263 39.564 47.7263 35.4351V3.58187C47.7263 0.961663 45.6005 -0.556733 42.9823 0.190785Z" fill="url(#paint0_linear)"/>
<defs>
<linearGradient id="paint0_linear" x1="24.999" y1="0.000244141" x2="24.999" y2="49.9999" gradientUnits="userSpaceOnUse">
<stop stop-color="#ED8770"/>
<stop offset="1" stop-color="#D9519D"/>
</linearGradient>
</defs>
</svg>
