<svg width="155" height="23" viewBox="0 0 155 23" fill="none" xmlns="http://www.w3.org/2000/svg">
<path opacity="0.8" d="M3.88672 0.9375L9.46484 14.8594L15.043 0.9375H17.9609V18H15.7109V11.3555L15.9219 4.18359L10.3203 18H8.59766L3.00781 4.21875L3.23047 11.3555V18H0.980469V0.9375H3.88672ZM29.4219 16.7461C28.5781 17.7383 27.3398 18.2344 25.707 18.2344C24.3555 18.2344 23.3242 17.8438 22.6133 17.0625C21.9102 16.2734 21.5547 15.1094 21.5469 13.5703V5.32031H23.7148V13.5117C23.7148 15.4336 24.4961 16.3945 26.0586 16.3945C27.7148 16.3945 28.8164 15.7773 29.3633 14.543V5.32031H31.5312V18H29.4688L29.4219 16.7461ZM36.875 16.2305H44.293V18H34.2266V16.4062L41.2227 7.11328H34.332V5.32031H43.9414V6.85547L36.875 16.2305ZM49.0977 18H46.9297V5.32031H49.0977V18ZM46.7539 1.95703C46.7539 1.60547 46.8594 1.30859 47.0703 1.06641C47.2891 0.824219 47.6094 0.703125 48.0312 0.703125C48.4531 0.703125 48.7734 0.824219 48.9922 1.06641C49.2109 1.30859 49.3203 1.60547 49.3203 1.95703C49.3203 2.30859 49.2109 2.60156 48.9922 2.83594C48.7734 3.07031 48.4531 3.1875 48.0312 3.1875C47.6094 3.1875 47.2891 3.07031 47.0703 2.83594C46.8594 2.60156 46.7539 2.30859 46.7539 1.95703ZM57.6641 16.4648C58.4375 16.4648 59.1133 16.2305 59.6914 15.7617C60.2695 15.293 60.5898 14.707 60.6523 14.0039H62.7031C62.6641 14.7305 62.4141 15.4219 61.9531 16.0781C61.4922 16.7344 60.875 17.2578 60.1016 17.6484C59.3359 18.0391 58.5234 18.2344 57.6641 18.2344C55.9375 18.2344 54.5625 17.6602 53.5391 16.5117C52.5234 15.3555 52.0156 13.7773 52.0156 11.7773V11.4141C52.0156 10.1797 52.2422 9.08203 52.6953 8.12109C53.1484 7.16016 53.7969 6.41406 54.6406 5.88281C55.4922 5.35156 56.4961 5.08594 57.6523 5.08594C59.0742 5.08594 60.2539 5.51172 61.1914 6.36328C62.1367 7.21484 62.6406 8.32031 62.7031 9.67969H60.6523C60.5898 8.85938 60.2773 8.1875 59.7148 7.66406C59.1602 7.13281 58.4727 6.86719 57.6523 6.86719C56.5508 6.86719 55.6953 7.26562 55.0859 8.0625C54.4844 8.85156 54.1836 9.99609 54.1836 11.4961V11.9062C54.1836 13.3672 54.4844 14.4922 55.0859 15.2812C55.6875 16.0703 56.5469 16.4648 57.6641 16.4648ZM77.2695 2.78906H71.7852V18H69.5469V2.78906H64.0742V0.9375H77.2695V2.78906ZM85.9531 18C85.8281 17.75 85.7266 17.3047 85.6484 16.6641C84.6406 17.7109 83.4375 18.2344 82.0391 18.2344C80.7891 18.2344 79.7617 17.8828 78.957 17.1797C78.1602 16.4688 77.7617 15.5703 77.7617 14.4844C77.7617 13.1641 78.2617 12.1406 79.2617 11.4141C80.2695 10.6797 81.6836 10.3125 83.5039 10.3125H85.6133V9.31641C85.6133 8.55859 85.3867 7.95703 84.9336 7.51172C84.4805 7.05859 83.8125 6.83203 82.9297 6.83203C82.1562 6.83203 81.5078 7.02734 80.9844 7.41797C80.4609 7.80859 80.1992 8.28125 80.1992 8.83594H78.0195C78.0195 8.20312 78.2422 7.59375 78.6875 7.00781C79.1406 6.41406 79.75 5.94531 80.5156 5.60156C81.2891 5.25781 82.1367 5.08594 83.0586 5.08594C84.5195 5.08594 85.6641 5.45312 86.4922 6.1875C87.3203 6.91406 87.75 7.91797 87.7812 9.19922V15.0352C87.7812 16.1992 87.9297 17.125 88.2266 17.8125V18H85.9531ZM82.3555 16.3477C83.0352 16.3477 83.6797 16.1719 84.2891 15.8203C84.8984 15.4688 85.3398 15.0117 85.6133 14.4492V11.8477H83.9141C81.2578 11.8477 79.9297 12.625 79.9297 14.1797C79.9297 14.8594 80.1562 15.3906 80.6094 15.7734C81.0625 16.1562 81.6445 16.3477 82.3555 16.3477ZM90.6641 11.5547C90.6641 9.57812 91.1211 8.00781 92.0352 6.84375C92.9492 5.67188 94.1602 5.08594 95.668 5.08594C97.2148 5.08594 98.4219 5.63281 99.2891 6.72656L99.3945 5.32031H101.375V17.6953C101.375 19.3359 100.887 20.6289 99.9102 21.5742C98.9414 22.5195 97.6367 22.9922 95.9961 22.9922C95.082 22.9922 94.1875 22.7969 93.3125 22.4062C92.4375 22.0156 91.7695 21.4805 91.3086 20.8008L92.4336 19.5C93.3633 20.6484 94.5 21.2227 95.8438 21.2227C96.8984 21.2227 97.7188 20.9258 98.3047 20.332C98.8984 19.7383 99.1953 18.9023 99.1953 17.8242V16.7344C98.3281 17.7344 97.1445 18.2344 95.6445 18.2344C94.1602 18.2344 92.957 17.6367 92.0352 16.4414C91.1211 15.2461 90.6641 13.6172 90.6641 11.5547ZM92.8438 11.8008C92.8438 13.2305 93.1367 14.3555 93.7227 15.1758C94.3086 15.9883 95.1289 16.3945 96.1836 16.3945C97.5508 16.3945 98.5547 15.7734 99.1953 14.5312V8.74219C98.5312 7.53125 97.5352 6.92578 96.207 6.92578C95.1523 6.92578 94.3281 7.33594 93.7344 8.15625C93.1406 8.97656 92.8438 10.1914 92.8438 11.8008ZM110.656 16.8633C110.656 16.4883 110.766 16.1758 110.984 15.9258C111.211 15.6758 111.547 15.5508 111.992 15.5508C112.438 15.5508 112.773 15.6758 113 15.9258C113.234 16.1758 113.352 16.4883 113.352 16.8633C113.352 17.2227 113.234 17.5234 113 17.7656C112.773 18.0078 112.438 18.1289 111.992 18.1289C111.547 18.1289 111.211 18.0078 110.984 17.7656C110.766 17.5234 110.656 17.2227 110.656 16.8633ZM116.363 11.543C116.363 10.3008 116.605 9.18359 117.09 8.19141C117.582 7.19922 118.262 6.43359 119.129 5.89453C120.004 5.35547 121 5.08594 122.117 5.08594C123.844 5.08594 125.238 5.68359 126.301 6.87891C127.371 8.07422 127.906 9.66406 127.906 11.6484V11.8008C127.906 13.0352 127.668 14.1445 127.191 15.1289C126.723 16.1055 126.047 16.8672 125.164 17.4141C124.289 17.9609 123.281 18.2344 122.141 18.2344C120.422 18.2344 119.027 17.6367 117.957 16.4414C116.895 15.2461 116.363 13.6641 116.363 11.6953V11.543ZM118.543 11.8008C118.543 13.207 118.867 14.3359 119.516 15.1875C120.172 16.0391 121.047 16.4648 122.141 16.4648C123.242 16.4648 124.117 16.0352 124.766 15.1758C125.414 14.3086 125.738 13.0977 125.738 11.543C125.738 10.1523 125.406 9.02734 124.742 8.16797C124.086 7.30078 123.211 6.86719 122.117 6.86719C121.047 6.86719 120.184 7.29297 119.527 8.14453C118.871 8.99609 118.543 10.2148 118.543 11.8008ZM130.109 11.5547C130.109 9.57812 130.566 8.00781 131.48 6.84375C132.395 5.67188 133.605 5.08594 135.113 5.08594C136.66 5.08594 137.867 5.63281 138.734 6.72656L138.84 5.32031H140.82V17.6953C140.82 19.3359 140.332 20.6289 139.355 21.5742C138.387 22.5195 137.082 22.9922 135.441 22.9922C134.527 22.9922 133.633 22.7969 132.758 22.4062C131.883 22.0156 131.215 21.4805 130.754 20.8008L131.879 19.5C132.809 20.6484 133.945 21.2227 135.289 21.2227C136.344 21.2227 137.164 20.9258 137.75 20.332C138.344 19.7383 138.641 18.9023 138.641 17.8242V16.7344C137.773 17.7344 136.59 18.2344 135.09 18.2344C133.605 18.2344 132.402 17.6367 131.48 16.4414C130.566 15.2461 130.109 13.6172 130.109 11.5547ZM132.289 11.8008C132.289 13.2305 132.582 14.3555 133.168 15.1758C133.754 15.9883 134.574 16.3945 135.629 16.3945C136.996 16.3945 138 15.7734 138.641 14.5312V8.74219C137.977 7.53125 136.98 6.92578 135.652 6.92578C134.598 6.92578 133.773 7.33594 133.18 8.15625C132.586 8.97656 132.289 10.1914 132.289 11.8008ZM143.586 11.5547C143.586 9.57812 144.043 8.00781 144.957 6.84375C145.871 5.67188 147.082 5.08594 148.59 5.08594C150.137 5.08594 151.344 5.63281 152.211 6.72656L152.316 5.32031H154.297V17.6953C154.297 19.3359 153.809 20.6289 152.832 21.5742C151.863 22.5195 150.559 22.9922 148.918 22.9922C148.004 22.9922 147.109 22.7969 146.234 22.4062C145.359 22.0156 144.691 21.4805 144.23 20.8008L145.355 19.5C146.285 20.6484 147.422 21.2227 148.766 21.2227C149.82 21.2227 150.641 20.9258 151.227 20.332C151.82 19.7383 152.117 18.9023 152.117 17.8242V16.7344C151.25 17.7344 150.066 18.2344 148.566 18.2344C147.082 18.2344 145.879 17.6367 144.957 16.4414C144.043 15.2461 143.586 13.6172 143.586 11.5547ZM145.766 11.8008C145.766 13.2305 146.059 14.3555 146.645 15.1758C147.23 15.9883 148.051 16.3945 149.105 16.3945C150.473 16.3945 151.477 15.7734 152.117 14.5312V8.74219C151.453 7.53125 150.457 6.92578 149.129 6.92578C148.074 6.92578 147.25 7.33594 146.656 8.15625C146.062 8.97656 145.766 10.1914 145.766 11.8008Z" fill="white"/>
</svg>
