<svg width="187" height="24" viewBox="0 0 187 24" fill="none" xmlns="http://www.w3.org/2000/svg">
<path opacity="0.8" d="M3.88672 1.9375L9.46484 15.8594L15.043 1.9375H17.9609V19H15.7109V12.3555L15.9219 5.18359L10.3203 19H8.59766L3.00781 5.21875L3.23047 12.3555V19H0.980469V1.9375H3.88672ZM29.4219 17.7461C28.5781 18.7383 27.3398 19.2344 25.707 19.2344C24.3555 19.2344 23.3242 18.8438 22.6133 18.0625C21.9102 17.2734 21.5547 16.1094 21.5469 14.5703V6.32031H23.7148V14.5117C23.7148 16.4336 24.4961 17.3945 26.0586 17.3945C27.7148 17.3945 28.8164 16.7773 29.3633 15.543V6.32031H31.5312V19H29.4688L29.4219 17.7461ZM36.875 17.2305H44.293V19H34.2266V17.4062L41.2227 8.11328H34.332V6.32031H43.9414V7.85547L36.875 17.2305ZM49.0977 19H46.9297V6.32031H49.0977V19ZM46.7539 2.95703C46.7539 2.60547 46.8594 2.30859 47.0703 2.06641C47.2891 1.82422 47.6094 1.70312 48.0312 1.70312C48.4531 1.70312 48.7734 1.82422 48.9922 2.06641C49.2109 2.30859 49.3203 2.60547 49.3203 2.95703C49.3203 3.30859 49.2109 3.60156 48.9922 3.83594C48.7734 4.07031 48.4531 4.1875 48.0312 4.1875C47.6094 4.1875 47.2891 4.07031 47.0703 3.83594C46.8594 3.60156 46.7539 3.30859 46.7539 2.95703ZM57.6641 17.4648C58.4375 17.4648 59.1133 17.2305 59.6914 16.7617C60.2695 16.293 60.5898 15.707 60.6523 15.0039H62.7031C62.6641 15.7305 62.4141 16.4219 61.9531 17.0781C61.4922 17.7344 60.875 18.2578 60.1016 18.6484C59.3359 19.0391 58.5234 19.2344 57.6641 19.2344C55.9375 19.2344 54.5625 18.6602 53.5391 17.5117C52.5234 16.3555 52.0156 14.7773 52.0156 12.7773V12.4141C52.0156 11.1797 52.2422 10.082 52.6953 9.12109C53.1484 8.16016 53.7969 7.41406 54.6406 6.88281C55.4922 6.35156 56.4961 6.08594 57.6523 6.08594C59.0742 6.08594 60.2539 6.51172 61.1914 7.36328C62.1367 8.21484 62.6406 9.32031 62.7031 10.6797H60.6523C60.5898 9.85938 60.2773 9.1875 59.7148 8.66406C59.1602 8.13281 58.4727 7.86719 57.6523 7.86719C56.5508 7.86719 55.6953 8.26562 55.0859 9.0625C54.4844 9.85156 54.1836 10.9961 54.1836 12.4961V12.9062C54.1836 14.3672 54.4844 15.4922 55.0859 16.2812C55.6875 17.0703 56.5469 17.4648 57.6641 17.4648ZM77.2695 3.78906H71.7852V19H69.5469V3.78906H64.0742V1.9375H77.2695V3.78906ZM85.9531 19C85.8281 18.75 85.7266 18.3047 85.6484 17.6641C84.6406 18.7109 83.4375 19.2344 82.0391 19.2344C80.7891 19.2344 79.7617 18.8828 78.957 18.1797C78.1602 17.4688 77.7617 16.5703 77.7617 15.4844C77.7617 14.1641 78.2617 13.1406 79.2617 12.4141C80.2695 11.6797 81.6836 11.3125 83.5039 11.3125H85.6133V10.3164C85.6133 9.55859 85.3867 8.95703 84.9336 8.51172C84.4805 8.05859 83.8125 7.83203 82.9297 7.83203C82.1562 7.83203 81.5078 8.02734 80.9844 8.41797C80.4609 8.80859 80.1992 9.28125 80.1992 9.83594H78.0195C78.0195 9.20312 78.2422 8.59375 78.6875 8.00781C79.1406 7.41406 79.75 6.94531 80.5156 6.60156C81.2891 6.25781 82.1367 6.08594 83.0586 6.08594C84.5195 6.08594 85.6641 6.45312 86.4922 7.1875C87.3203 7.91406 87.75 8.91797 87.7812 10.1992V16.0352C87.7812 17.1992 87.9297 18.125 88.2266 18.8125V19H85.9531ZM82.3555 17.3477C83.0352 17.3477 83.6797 17.1719 84.2891 16.8203C84.8984 16.4688 85.3398 16.0117 85.6133 15.4492V12.8477H83.9141C81.2578 12.8477 79.9297 13.625 79.9297 15.1797C79.9297 15.8594 80.1562 16.3906 80.6094 16.7734C81.0625 17.1562 81.6445 17.3477 82.3555 17.3477ZM90.6641 12.5547C90.6641 10.5781 91.1211 9.00781 92.0352 7.84375C92.9492 6.67188 94.1602 6.08594 95.668 6.08594C97.2148 6.08594 98.4219 6.63281 99.2891 7.72656L99.3945 6.32031H101.375V18.6953C101.375 20.3359 100.887 21.6289 99.9102 22.5742C98.9414 23.5195 97.6367 23.9922 95.9961 23.9922C95.082 23.9922 94.1875 23.7969 93.3125 23.4062C92.4375 23.0156 91.7695 22.4805 91.3086 21.8008L92.4336 20.5C93.3633 21.6484 94.5 22.2227 95.8438 22.2227C96.8984 22.2227 97.7188 21.9258 98.3047 21.332C98.8984 20.7383 99.1953 19.9023 99.1953 18.8242V17.7344C98.3281 18.7344 97.1445 19.2344 95.6445 19.2344C94.1602 19.2344 92.957 18.6367 92.0352 17.4414C91.1211 16.2461 90.6641 14.6172 90.6641 12.5547ZM92.8438 12.8008C92.8438 14.2305 93.1367 15.3555 93.7227 16.1758C94.3086 16.9883 95.1289 17.3945 96.1836 17.3945C97.5508 17.3945 98.5547 16.7734 99.1953 15.5312V9.74219C98.5312 8.53125 97.5352 7.92578 96.207 7.92578C95.1523 7.92578 94.3281 8.33594 93.7344 9.15625C93.1406 9.97656 92.8438 11.1914 92.8438 12.8008ZM110.656 17.8633C110.656 17.4883 110.766 17.1758 110.984 16.9258C111.211 16.6758 111.547 16.5508 111.992 16.5508C112.438 16.5508 112.773 16.6758 113 16.9258C113.234 17.1758 113.352 17.4883 113.352 17.8633C113.352 18.2227 113.234 18.5234 113 18.7656C112.773 19.0078 112.438 19.1289 111.992 19.1289C111.547 19.1289 111.211 19.0078 110.984 18.7656C110.766 18.5234 110.656 18.2227 110.656 17.8633ZM122.703 23.2891C121.32 22.8984 120.277 22.2539 119.574 21.3555C118.879 20.4648 118.531 19.2852 118.531 17.8164V15.4844C118.531 13.5859 117.703 12.6367 116.047 12.6367V10.9375C117.703 10.9375 118.531 9.99219 118.531 8.10156V5.66406C118.547 4.23438 118.895 3.08203 119.574 2.20703C120.262 1.32422 121.305 0.683594 122.703 0.285156L123.148 1.63281C121.516 2.15625 120.699 3.51953 120.699 5.72266V8.08984C120.699 9.86328 120.047 11.0977 118.742 11.793C120.047 12.4961 120.699 13.7422 120.699 15.5312V17.9453C120.723 20.0938 121.539 21.4258 123.148 21.9414L122.703 23.2891ZM124.496 12.543C124.496 11.3008 124.738 10.1836 125.223 9.19141C125.715 8.19922 126.395 7.43359 127.262 6.89453C128.137 6.35547 129.133 6.08594 130.25 6.08594C131.977 6.08594 133.371 6.68359 134.434 7.87891C135.504 9.07422 136.039 10.6641 136.039 12.6484V12.8008C136.039 14.0352 135.801 15.1445 135.324 16.1289C134.855 17.1055 134.18 17.8672 133.297 18.4141C132.422 18.9609 131.414 19.2344 130.273 19.2344C128.555 19.2344 127.16 18.6367 126.09 17.4414C125.027 16.2461 124.496 14.6641 124.496 12.6953V12.543ZM126.676 12.8008C126.676 14.207 127 15.3359 127.648 16.1875C128.305 17.0391 129.18 17.4648 130.273 17.4648C131.375 17.4648 132.25 17.0352 132.898 16.1758C133.547 15.3086 133.871 14.0977 133.871 12.543C133.871 11.1523 133.539 10.0273 132.875 9.16797C132.219 8.30078 131.344 7.86719 130.25 7.86719C129.18 7.86719 128.316 8.29297 127.66 9.14453C127.004 9.99609 126.676 11.2148 126.676 12.8008ZM141.699 3.25V6.32031H144.066V7.99609H141.699V15.8594C141.699 16.3672 141.805 16.75 142.016 17.0078C142.227 17.2578 142.586 17.3828 143.094 17.3828C143.344 17.3828 143.688 17.3359 144.125 17.2422V19C143.555 19.1562 143 19.2344 142.461 19.2344C141.492 19.2344 140.762 18.9414 140.27 18.3555C139.777 17.7695 139.531 16.9375 139.531 15.8594V7.99609H137.223V6.32031H139.531V3.25H141.699ZM148.777 7.85547C149.738 6.67578 150.988 6.08594 152.527 6.08594C155.207 6.08594 156.559 7.59766 156.582 10.6211V19H154.414V10.6094C154.406 9.69531 154.195 9.01953 153.781 8.58203C153.375 8.14453 152.738 7.92578 151.871 7.92578C151.168 7.92578 150.551 8.11328 150.02 8.48828C149.488 8.86328 149.074 9.35547 148.777 9.96484V19H146.609V1H148.777V7.85547ZM165.09 19.2344C163.371 19.2344 161.973 18.6719 160.895 17.5469C159.816 16.4141 159.277 14.9023 159.277 13.0117V12.6133C159.277 11.3555 159.516 10.2344 159.992 9.25C160.477 8.25781 161.148 7.48438 162.008 6.92969C162.875 6.36719 163.812 6.08594 164.82 6.08594C166.469 6.08594 167.75 6.62891 168.664 7.71484C169.578 8.80078 170.035 10.3555 170.035 12.3789V13.2812H161.445C161.477 14.5312 161.84 15.543 162.535 16.3164C163.238 17.082 164.129 17.4648 165.207 17.4648C165.973 17.4648 166.621 17.3086 167.152 16.9961C167.684 16.6836 168.148 16.2695 168.547 15.7539L169.871 16.7852C168.809 18.418 167.215 19.2344 165.09 19.2344ZM164.82 7.86719C163.945 7.86719 163.211 8.1875 162.617 8.82812C162.023 9.46094 161.656 10.3516 161.516 11.5H167.867V11.3359C167.805 10.2344 167.508 9.38281 166.977 8.78125C166.445 8.17188 165.727 7.86719 164.82 7.86719ZM178.684 8.26562C178.355 8.21094 178 8.18359 177.617 8.18359C176.195 8.18359 175.23 8.78906 174.723 10V19H172.555V6.32031H174.664L174.699 7.78516C175.41 6.65234 176.418 6.08594 177.723 6.08594C178.145 6.08594 178.465 6.14062 178.684 6.25V8.26562ZM179.27 21.9414C180.855 21.4336 181.676 20.1406 181.73 18.0625V15.4844C181.73 13.6797 182.438 12.4492 183.852 11.793C182.438 11.1523 181.73 9.92188 181.73 8.10156V5.72266C181.73 3.51953 180.914 2.15625 179.281 1.63281L179.727 0.285156C181.109 0.675781 182.148 1.3125 182.844 2.19531C183.539 3.07031 183.891 4.23047 183.898 5.67578V8.13672C183.898 10.0039 184.727 10.9375 186.383 10.9375V12.6367C184.727 12.6367 183.898 13.5859 183.898 15.4844V17.8516C183.898 19.3203 183.543 20.4961 182.832 21.3789C182.129 22.2617 181.094 22.8984 179.727 23.2891L179.27 21.9414Z" fill="white"/>
</svg>
