<svg width="51" height="30" viewBox="0 0 51 30" fill="none" xmlns="http://www.w3.org/2000/svg">
<path d="M43.5294 4.28414H23.1303L23.5687 3.65609C23.849 3.25445 24.0065 2.70967 24.0065 2.14167C24.0065 1.57366 23.849 1.02889 23.5687 0.627246C23.2884 0.225605 22.9082 4.39801e-08 22.5118 0C22.1154 -4.39797e-08 21.7352 0.225605 21.4549 0.627246L18.4712 4.90245C18.3323 5.10127 18.2222 5.33729 18.1471 5.59714C18.0719 5.85698 18.0332 6.13549 18.0332 6.41677C18.0332 6.69805 18.0719 6.97666 18.1471 7.23651C18.2222 7.49635 18.3323 7.73238 18.4712 7.93119L21.4549 12.2064C21.7352 12.608 22.1154 12.8336 22.5118 12.8336C22.9082 12.8336 23.2884 12.608 23.5687 12.2064C23.849 11.8048 24.0065 11.26 24.0065 10.692C24.0065 10.124 23.849 9.5792 23.5687 9.17756L23.1303 8.54941H43.5294C44.7182 8.54941 45.8583 9.22607 46.6989 10.4305C47.5395 11.635 48.0118 13.2686 48.0118 14.972C48.0118 16.6754 47.5395 18.309 46.6989 19.5135C45.8583 20.7179 44.7182 21.3946 43.5294 21.3946H37.4542C37.0729 21.4249 36.7141 21.6633 36.4516 22.0609C36.1891 22.4584 36.0429 22.985 36.0429 23.5322C36.0429 24.0795 36.1891 24.606 36.4516 25.0035C36.7141 25.4011 37.0729 25.6395 37.4542 25.6698H43.5294C45.5107 25.6698 47.4109 24.542 48.8119 22.5346C50.213 20.5271 51 17.8044 51 14.9655C51 12.1265 50.213 9.40383 48.8119 7.39638C47.4109 5.38893 45.5107 4.26116 43.5294 4.26116V4.28414Z" fill="#C1C0C0"/>
<path d="M29.5452 17.7705C29.4064 17.5717 29.2416 17.4139 29.0603 17.3063C28.8789 17.1986 28.6845 17.1432 28.4883 17.1432C28.0918 17.1432 27.7117 17.3689 27.4314 17.7705C27.151 18.1722 26.9936 18.7168 26.9936 19.2848C26.9936 19.8529 27.151 20.3976 27.4314 20.7993L27.8697 21.4274H7.47064C6.28184 21.4274 5.14172 20.7508 4.30111 19.5463C3.4605 18.3418 2.98826 16.7082 2.98826 15.0048C2.98826 13.3014 3.4605 11.6678 4.30111 10.4634C5.14172 9.2589 6.28184 8.58223 7.47064 8.58223H13.5412C13.7441 8.59836 13.9472 8.55501 14.1379 8.45487C14.3287 8.35474 14.5033 8.19992 14.6509 7.99985C14.7985 7.79977 14.916 7.55871 14.9964 7.29131C15.0767 7.02391 15.1182 6.73581 15.1182 6.44468C15.1182 6.15355 15.0767 5.86545 14.9964 5.59805C14.916 5.33065 14.7985 5.08959 14.6509 4.88951C14.5033 4.68943 14.3287 4.53452 14.1379 4.43438C13.9472 4.33425 13.7441 4.291 13.5412 4.30713H7.47064C5.4893 4.30713 3.58912 5.4349 2.1881 7.44235C0.787083 9.4498 0 12.1724 0 15.0113C0 17.8503 0.787083 20.573 2.1881 22.5804C3.58912 24.5879 5.4893 25.7157 7.47064 25.7157H27.8697L27.4314 26.3438C27.151 26.7455 26.9936 27.2902 26.9936 27.8582C26.9936 28.4262 27.151 28.9709 27.4314 29.3726C27.7117 29.7742 28.0918 29.9999 28.4883 29.9999C28.8847 29.9999 29.2649 29.7742 29.5452 29.3726L32.5288 25.0975C32.6677 24.8986 32.7778 24.6625 32.853 24.4027C32.9282 24.1428 32.9668 23.8643 32.9668 23.583C32.9668 23.3018 32.9282 23.0232 32.853 22.7634C32.7778 22.5036 32.6677 22.2675 32.5288 22.0687L29.5452 17.7705Z" fill="#C1C0C0"/>
</svg>
