<svg width="51" height="18" viewBox="0 0 51 18" fill="none" xmlns="http://www.w3.org/2000/svg">
<path d="M22.3799 9.24658C21.1738 8.8999 20.2949 8.4751 19.7432 7.97217C19.1963 7.46436 18.9229 6.83936 18.9229 6.09717C18.9229 5.25732 19.2573 4.56396 19.9263 4.01709C20.6001 3.46533 21.4741 3.18945 22.5483 3.18945C23.2808 3.18945 23.9326 3.33105 24.5039 3.61426C25.0801 3.89746 25.5244 4.28809 25.8369 4.78613C26.1543 5.28418 26.313 5.82861 26.313 6.41943H24.8994C24.8994 5.7749 24.6943 5.26953 24.2842 4.90332C23.874 4.53223 23.2954 4.34668 22.5483 4.34668C21.855 4.34668 21.313 4.50049 20.9224 4.80811C20.5366 5.11084 20.3438 5.5332 20.3438 6.0752C20.3438 6.50977 20.5269 6.87842 20.8931 7.18115C21.2642 7.479 21.8916 7.75244 22.7754 8.00146C23.6641 8.25049 24.3574 8.52637 24.8555 8.8291C25.3584 9.12695 25.7295 9.47607 25.9688 9.87646C26.2129 10.2769 26.335 10.748 26.335 11.29C26.335 12.1543 25.998 12.8477 25.3242 13.3701C24.6504 13.8877 23.7495 14.1465 22.6216 14.1465C21.8892 14.1465 21.2056 14.0073 20.5708 13.729C19.936 13.4458 19.4453 13.0601 19.0986 12.5718C18.7568 12.0835 18.5859 11.5293 18.5859 10.9092H19.9995C19.9995 11.5537 20.2363 12.064 20.71 12.4399C21.1885 12.811 21.8257 12.9966 22.6216 12.9966C23.3638 12.9966 23.9326 12.8452 24.3281 12.5425C24.7236 12.2397 24.9214 11.8271 24.9214 11.3047C24.9214 10.7822 24.7383 10.3794 24.3721 10.0962C24.0059 9.80811 23.3418 9.5249 22.3799 9.24658ZM32.8242 14C32.7461 13.8438 32.6826 13.5654 32.6338 13.165C32.0039 13.8193 31.252 14.1465 30.3779 14.1465C29.5967 14.1465 28.9546 13.9268 28.4517 13.4873C27.9536 13.043 27.7046 12.4814 27.7046 11.8027C27.7046 10.9775 28.0171 10.3379 28.6421 9.88379C29.272 9.4248 30.1558 9.19531 31.2935 9.19531H32.6118V8.57275C32.6118 8.09912 32.4702 7.72314 32.187 7.44482C31.9038 7.16162 31.4863 7.02002 30.9346 7.02002C30.4512 7.02002 30.0459 7.14209 29.7188 7.38623C29.3916 7.63037 29.228 7.92578 29.228 8.27246H27.8657C27.8657 7.87695 28.0049 7.49609 28.2832 7.12988C28.5664 6.75879 28.9473 6.46582 29.4258 6.25098C29.9092 6.03613 30.439 5.92871 31.0151 5.92871C31.9282 5.92871 32.6436 6.1582 33.1611 6.61719C33.6787 7.07129 33.9473 7.69873 33.9668 8.49951V12.147C33.9668 12.8745 34.0596 13.4531 34.2451 13.8828V14H32.8242ZM30.5757 12.9673C31.0005 12.9673 31.4033 12.8574 31.7842 12.6377C32.165 12.418 32.4409 12.1323 32.6118 11.7808V10.1548H31.5498C29.8896 10.1548 29.0596 10.6406 29.0596 11.6123C29.0596 12.0371 29.2012 12.3691 29.4844 12.6084C29.7676 12.8477 30.1313 12.9673 30.5757 12.9673ZM38.5884 12.1616L40.5513 6.0752H41.9355L39.0938 14H38.061L35.1899 6.0752H36.5742L38.5884 12.1616ZM46.4253 14.1465C45.3511 14.1465 44.4771 13.7949 43.8032 13.0918C43.1294 12.3838 42.7925 11.439 42.7925 10.2573V10.0083C42.7925 9.22217 42.9414 8.52148 43.2393 7.90625C43.542 7.28613 43.9619 6.80273 44.499 6.45605C45.041 6.10449 45.627 5.92871 46.2568 5.92871C47.2871 5.92871 48.0879 6.26807 48.6592 6.94678C49.2305 7.62549 49.5161 8.59717 49.5161 9.86182V10.4258H44.1475C44.167 11.207 44.394 11.8394 44.8286 12.3228C45.2681 12.8013 45.8247 13.0405 46.4985 13.0405C46.9771 13.0405 47.3823 12.9429 47.7144 12.7476C48.0464 12.5522 48.3369 12.2935 48.5859 11.9712L49.4136 12.6157C48.7495 13.6362 47.7534 14.1465 46.4253 14.1465ZM46.2568 7.04199C45.71 7.04199 45.251 7.24219 44.8799 7.64258C44.5088 8.03809 44.2793 8.59473 44.1914 9.3125H48.1611V9.20996C48.1221 8.52148 47.9365 7.98926 47.6045 7.61328C47.2725 7.23242 46.8232 7.04199 46.2568 7.04199Z" fill="white"/>
<path d="M9.625 6.25H9.16667V4.5C9.16667 3.57174 8.78036 2.6815 8.09273 2.02513C7.40509 1.36875 6.47246 1 5.5 1C4.52754 1 3.59491 1.36875 2.90728 2.02513C2.21964 2.6815 1.83333 3.57174 1.83333 4.5V6.25H1.375C1.01048 6.25046 0.661021 6.38889 0.403264 6.63493C0.145506 6.88097 0.000485062 7.21455 0 7.5625V13.6875C0.000485062 14.0355 0.145506 14.369 0.403264 14.6151C0.661021 14.8611 1.01048 14.9995 1.375 15H9.625C9.98952 14.9995 10.339 14.8611 10.5967 14.6151C10.8545 14.369 10.9995 14.0355 11 13.6875V7.5625C10.9995 7.21455 10.8545 6.88097 10.5967 6.63493C10.339 6.38889 9.98952 6.25046 9.625 6.25V6.25ZM3.05556 4.5C3.05556 3.88116 3.31309 3.28767 3.77152 2.85008C4.22994 2.4125 4.85169 2.16667 5.5 2.16667C6.14831 2.16667 6.77006 2.4125 7.22848 2.85008C7.68691 3.28767 7.94444 3.88116 7.94444 4.5V6.25H3.05556V4.5ZM6.11111 10.7545V12.0833C6.11111 12.238 6.04673 12.3864 5.93212 12.4958C5.81752 12.6052 5.66208 12.6667 5.5 12.6667C5.33792 12.6667 5.18248 12.6052 5.06788 12.4958C4.95327 12.3864 4.88889 12.238 4.88889 12.0833V10.7545C4.65588 10.6261 4.47378 10.4279 4.37081 10.1906C4.26785 9.95333 4.24979 9.69025 4.31942 9.44218C4.38906 9.19411 4.5425 8.9749 4.75596 8.81856C4.96941 8.66221 5.23095 8.57747 5.5 8.57747C5.76905 8.57747 6.03059 8.66221 6.24404 8.81856C6.4575 8.9749 6.61094 9.19411 6.68058 9.44218C6.75021 9.69025 6.73215 9.95333 6.62919 10.1906C6.52622 10.4279 6.34412 10.6261 6.11111 10.7545Z" fill="white"/>
</svg>
